<?xml version="1.0" encoding="utf-8"?>
<!-- Generator: Adobe Illustrator 21.0.2, SVG Export Plug-In . SVG Version: 6.00 Build 0)  -->
<svg version="1.1" id="Camada_1" xmlns="http://www.w3.org/2000/svg" xmlns:xlink="http://www.w3.org/1999/xlink" x="0px" y="0px"
	 viewBox="0 0 100 100" style="enable-background:new 0 0 100 100;" xml:space="preserve">
<style type="text/css">
	.st0{display:none;fill:#EA5C5C;}
	.st1{display:none;}
	.st2{display:inline;fill:#786BAC;}
	.st3{display:inline;fill:#FFFFFF;}
	.st4{fill:#FFFFFF;}
	.st5{display:none;fill:#FFFFFF;}
</style>
<g>
	<g>
		<g>
			<rect x="-8" y="-15" class="st0" width="136" height="146"/>
			<g class="st1">
				<path class="st2" d="M94.7,18.4c0,0-22.1-12.7-41,6.1c0,0-6,7.7-14,9.7c0,0-14,3.2-23.1-5.8c0,0-16.9,12.9-12.7,32
					c0,0,6.7-16.2,22.5-16.4C33.7,44,42,49,47.5,56.3c0.3,0.5,0.5,1.1,0.7,1.7l-0.8-0.2c0,0-1.7,22.2-22,31.1l6.7,0.9
					c-0.3,0.1-0.6,0.1-0.9,0.2l1.9,0.5c16.1,1.6,23.4-5.9,23.4-5.9s0.1-0.5,0.2-1.2c6.8-5.1,14.8-13.8,14.8-26.5
					c0,0-2.4-26.6,23.2-36.7C94.8,20.1,96.6,19.3,94.7,18.4z"/>
			</g>
			<g class="st1">
				<path class="st3" d="M78.7,14.3c1.2,0.1,0.8,2.4,0.8,3.7c0,4.8-3.9,8.7-8.7,8.7c-4.6,0-8.3-3.6-8.6-8.1
					C62.2,18.6,70.7,13.5,78.7,14.3z"/>
			</g>
			<g>
				<path class="st4" d="M47.5,57.7c0,0,0.3-0.9,0-1.5C42,49,33.7,44,26.4,44.1C10.6,44.3,3.9,60.4,3.9,60.4
					c-4.2-19.1,12.7-32,12.7-32c9.1,9,23.1,5.8,23.1,5.8S49,49.3,47.5,57.7z"/>
			</g>
			<g>
				<path class="st4" d="M95.5,19.5c0,0-16.4-1.1-27.8,13.2c-11.4,14.2-8.2,33.6,0,40.7c0,0,5-8.7,4-19.7c0,0,0-21.3,16.1-29.8
					L95.5,19.5z"/>
			</g>
			<g>
				<polygon class="st4" points="25.5,23.1 16.6,28.4 25.6,33.6 35.9,34.2 39.3,34.3 51.1,27.8 51,24.4 40.9,22.6 				"/>
			</g>
			<g>
				<path class="st4" d="M37.4,91.7c-0.8,0-1.4-0.6-1.4-1.4c0-0.8,0.6-1.4,1.4-1.4c18.2,0,33-14.8,33-33s-14.8-33-33-33
					s-33,14.8-33,33c0,0.8-0.6,1.4-1.4,1.4c-0.8,0-1.4-0.6-1.4-1.4c0-19.7,16-35.7,35.7-35.7c19.7,0,35.7,16,35.7,35.7
					C73.1,75.7,57.1,91.7,37.4,91.7z"/>
			</g>
			<g>
				<path class="st4" d="M37.4,91.7c-4.3,0-8.6-0.8-12.6-2.3c-0.7-0.3-1.1-1.1-0.8-1.8c0.3-0.7,1.1-1.1,1.8-0.8
					c3.7,1.4,7.6,2.1,11.6,2.1c18.2,0,33-14.8,33-33s-14.8-33-33-33s-33,14.8-33,33c0,2,0.2,3.9,0.5,5.8c0.1,0.7-0.4,1.5-1.1,1.6
					C3,63.5,2.3,63,2.2,62.3c-0.4-2.1-0.6-4.2-0.6-6.3c0-19.7,16-35.7,35.7-35.7c19.7,0,35.7,16,35.7,35.7
					C73.1,75.7,57.1,91.7,37.4,91.7z"/>
			</g>
			<g>
				<path class="st4" d="M66.8,75.2c-0.4,0-0.9-0.2-1.1-0.6C61.3,68.5,59,61.3,59,53.8c0-6.5,1.8-12.9,5.1-18.5
					c6.5-10.8,18-17.3,30.6-17.3c0.6,0,1.3,0,1.9,0.1c0.8,0,1.3,0.7,1.3,1.4c0,0.8-0.7,1.3-1.4,1.3c-0.6,0-1.2,0-1.8,0
					c-11.6,0-22.2,6-28.2,15.9c-3.1,5.1-4.7,11-4.7,17.1c0,6.9,2.1,13.5,6.1,19.2c0.4,0.6,0.3,1.5-0.3,1.9
					C67.3,75.1,67.1,75.2,66.8,75.2z"/>
			</g>
			<g>
				<path class="st4" d="M71.7,55.8c-0.7,0-1.3-0.6-1.4-1.3c-0.2-3.2,0.1-6.3,0.8-9.5c2.7-12.3,11.4-22.2,23.3-26.3
					c0.6-0.2,1.2-0.4,1.8-0.6c0.7-0.2,1.5,0.2,1.7,0.9c0.2,0.7-0.2,1.5-0.9,1.7c-0.6,0.2-1.1,0.3-1.7,0.5
					c-11,3.8-19.1,12.9-21.5,24.2c-0.6,2.9-0.9,5.8-0.7,8.7C73.1,55.1,72.5,55.8,71.7,55.8C71.8,55.8,71.7,55.8,71.7,55.8z"/>
			</g>
			<g>
				<path class="st4" d="M52.9,26.7c-0.3,0-0.7-0.1-0.9-0.4c-0.6-0.5-0.6-1.4-0.1-1.9c6.8-7.4,16.4-11.6,26.3-11.6
					c6.8,0,13.4,1.9,19.1,5.5c0.6,0.4,0.8,1.3,0.4,1.9c-0.4,0.6-1.3,0.8-1.9,0.4c-5.3-3.3-11.4-5.1-17.6-5.1
					c-9.2,0-18.1,3.9-24.3,10.7C53.7,26.5,53.3,26.7,52.9,26.7z"/>
			</g>
			<g>
				<path class="st4" d="M33.1,36.1c-6.4,0-12.6-2.3-17.4-6.4c-0.6-0.5-0.6-1.4-0.2-1.9c0.5-0.6,1.4-0.6,1.9-0.2
					c4.3,3.7,9.9,5.7,15.6,5.7c7.3,0,14.1-3.2,18.7-8.9c0.5-0.6,1.3-0.7,1.9-0.2c0.6,0.5,0.7,1.3,0.2,1.9
					C48.8,32.5,41.2,36.1,33.1,36.1z"/>
			</g>
			<g>
				<path class="st4" d="M25.3,89.6c-0.6,0-1.1-0.3-1.3-0.9c-0.3-0.7,0.1-1.5,0.8-1.8C37.6,82.1,46.2,69.7,46.2,56
					c0-8.2-3.1-15.9-8.3-21.8c-0.1-0.1-0.2-0.1-0.2-0.2c-0.3-1,2.7-1,3.1-0.6c0.2,0.1,0.3,0.3,0.4,0.5c4.9,6.2,7.7,14,7.7,22.1
					c0,14.8-9.3,28.3-23.2,33.5C25.6,89.5,25.5,89.6,25.3,89.6z"/>
			</g>
			<g>
				<path class="st4" d="M3.5,63.4c-0.1,0-0.2,0-0.3,0c-0.7-0.2-1.2-0.9-1.1-1.6c2.4-11.3,12.6-19.5,24.2-19.5
					c9.6,0,18.3,5.6,22.4,14.2c0.3,0.7,0,1.5-0.7,1.8c-0.7,0.3-1.5,0-1.8-0.7C42.7,50,34.9,45,26.4,45C16.1,45,7.1,52.3,4.9,62.3
					C4.7,63,4.2,63.4,3.5,63.4z"/>
			</g>
			<g>
				<path class="st4" d="M70.9,28.1c-5.3,0-9.7-4.1-10-9.4c0-0.8,0.5-1.4,1.3-1.5c0.8-0.1,1.4,0.5,1.5,1.3c0.3,3.8,3.4,6.8,7.3,6.8
					c4,0,7.3-3.3,7.3-7.3c0-1.1-0.2-2.1-0.7-3.1c-0.3-0.7,0-1.5,0.7-1.8c0.7-0.3,1.5,0,1.8,0.6c0.6,1.4,1,2.8,1,4.3
					C80.9,23.6,76.4,28.1,70.9,28.1z"/>
			</g>
			<g>
				<circle class="st4" cx="71.5" cy="20.5" r="2.3"/>
			</g>
		</g>
	</g>
</g>
<polygon class="st5" points="54,24 62,18 64,24 71.5,26.7 65.4,35.4 60,31 54,26 "/>
<g id="Camada_2">
</g>
<polygon class="st4" points="79,14 79,23.4 94.3,18.1 "/>
</svg>
